<svg width="49" height="48" viewBox="0 0 49 48" fill="none" xmlns="http://www.w3.org/2000/svg">
<path d="M24.332 0C21.0195 0 17.8945 0.625 14.957 1.875C12.0508 3.125 9.50391 4.84375 7.31641 7.03125C5.16016 9.1875 3.45703 11.7344 2.20703 14.6719C0.957031 17.5781 0.332031 20.6875 0.332031 24C0.332031 27.3125 0.957031 30.4375 2.20703 33.375C3.45703 36.2812 5.16016 38.8281 7.31641 41.0156C9.50391 43.1719 12.0508 44.875 14.957 46.125C17.8945 47.375 21.0195 48 24.332 48C27.6445 48 30.7539 47.375 33.6602 46.125C36.5977 44.875 39.1445 43.1719 41.3008 41.0156C43.4883 38.8281 45.207 36.2812 46.457 33.375C47.707 30.4375 48.332 27.3125 48.332 24C48.332 20.6875 47.707 17.5781 46.457 14.6719C45.207 11.7344 43.4883 9.1875 41.3008 7.03125C39.1445 4.84375 36.5977 3.125 33.6602 1.875C30.7539 0.625 27.6445 0 24.332 0ZM24.332 44.8125C21.457 44.8125 18.7539 44.2656 16.2227 43.1719C13.6914 42.0781 11.4883 40.5938 9.61328 38.7188C7.73828 36.8438 6.25391 34.6406 5.16016 32.1094C4.06641 29.5781 3.51953 26.875 3.51953 24C3.51953 21.125 4.06641 18.4219 5.16016 15.8906C6.25391 13.3594 7.73828 11.1562 9.61328 9.28125C11.4883 7.40625 13.6914 5.92188 16.2227 4.82812C18.7539 3.73437 21.457 3.1875 24.332 3.1875C27.207 3.1875 29.9102 3.73437 32.4414 4.82812C34.9727 5.92188 37.1758 7.40625 39.0508 9.28125C40.9258 11.1562 42.4102 13.3594 43.5039 15.8906C44.5977 18.4219 45.1445 21.125 45.1445 24C45.1445 26.875 44.5977 29.5781 43.5039 32.1094C42.4102 34.6406 40.9258 36.8438 39.0508 38.7188C37.1758 40.5938 34.9727 42.0781 32.4414 43.1719C29.9102 44.2656 27.207 44.8125 24.332 44.8125ZM19.5508 30.5625L12.2383 22.4062L9.94141 24.6094L19.5508 35.2031L38.7227 15.0938L36.4727 12.7969L19.5508 30.5625Z" fill="#46BC63"/>
</svg>
