<svg width="43" height="48" viewBox="0 0 43 48" fill="none" xmlns="http://www.w3.org/2000/svg">
<path d="M26.4473 6.98438V4.78125C26.4473 3.46875 25.9785 2.34375 25.041 1.40625C24.1035 0.46875 22.9785 0 21.666 0C20.3535 0 19.2285 0.46875 18.291 1.40625C17.3535 2.34375 16.8848 3.46875 16.8848 4.78125V6.98438C14.5723 7.51563 12.4316 8.40625 10.4629 9.65625C8.52539 10.9062 6.83789 12.4219 5.40039 14.2031C3.99414 15.9844 2.88477 17.9844 2.07227 20.2031C1.25977 22.4219 0.853516 24.75 0.853516 27.1875C0.853516 30.0625 1.40039 32.7656 2.49414 35.2969C3.58789 37.8281 5.07227 40.0312 6.94727 41.9062C8.82227 43.7812 11.0254 45.2656 13.5566 46.3594C16.0879 47.4531 18.791 48 21.666 48C24.541 48 27.2441 47.4531 29.7754 46.3594C32.3066 45.2656 34.5098 43.7812 36.3848 41.9062C38.2598 40.0312 39.7441 37.8281 40.8379 35.2969C41.9316 32.7656 42.4785 30.0625 42.4785 27.1875C42.4785 24.75 42.0723 22.4219 41.2598 20.2031C40.4473 17.9844 39.3223 15.9844 37.8848 14.2031C36.4785 12.4219 34.791 10.9062 32.8223 9.65625C30.8848 8.40625 28.7598 7.51563 26.4473 6.98438ZM20.0723 4.78125C20.0723 4.34375 20.2285 3.96875 20.541 3.65625C20.8535 3.34375 21.2285 3.1875 21.666 3.1875C22.1035 3.1875 22.4785 3.34375 22.791 3.65625C23.1035 3.96875 23.2598 4.34375 23.2598 4.78125V6.46875C23.0098 6.46875 22.7441 6.46875 22.4629 6.46875C22.2129 6.4375 21.9473 6.42188 21.666 6.42188C21.3848 6.42188 21.1035 6.4375 20.8223 6.46875C20.5723 6.46875 20.3223 6.46875 20.0723 6.46875V4.78125ZM23.2598 44.7188V41.5781H20.0723V44.7188C17.9473 44.5312 15.9629 44 14.1191 43.125C12.2754 42.2188 10.6348 41.0625 9.19727 39.6562C7.79102 38.2188 6.63477 36.5781 5.72852 34.7344C4.85352 32.8906 4.32227 30.9062 4.13477 28.7812H7.27539V25.5938H4.13477C4.32227 23.5 4.85352 21.5312 5.72852 19.6875C6.63477 17.8125 7.79102 16.1719 9.19727 14.7656C10.6348 13.3594 12.2754 12.2187 14.1191 11.3438C15.9629 10.4375 17.9473 9.89062 20.0723 9.70312V12.7969H23.2598V9.70312C25.3848 9.89062 27.3691 10.4375 29.2129 11.3438C31.0566 12.2187 32.6816 13.3594 34.0879 14.7656C35.5254 16.1719 36.6816 17.8125 37.5566 19.6875C38.4629 21.5312 39.0098 23.5 39.1973 25.5938H36.0566V28.7812H39.1973C39.0098 30.9062 38.4629 32.8906 37.5566 34.7344C36.6816 36.5781 35.5254 38.2188 34.0879 39.6562C32.6816 41.0625 31.0566 42.2188 29.2129 43.125C27.3691 44 25.3848 44.5312 23.2598 44.7188ZM10.4629 38.3906L26.4473 32.0156L32.8691 15.9844L16.8848 22.4062L10.4629 38.3906ZM27.1035 21.75L24.0098 29.5312L16.2285 32.6719L19.3223 24.8438L27.1035 21.75Z" fill="#46BC63"/>
</svg>
