<svg width="42" height="42" viewBox="0 0 42 42" fill="none" xmlns="http://www.w3.org/2000/svg">
<path d="M20.8594 6.60938C20.4844 4.76562 19.5625 3.23438 18.0938 2.01562C16.625 0.796875 14.9219 0.1875 12.9844 0.1875C11.0469 0.1875 9.34375 0.796875 7.875 2.01562C6.4375 3.23438 5.53125 4.76562 5.15625 6.60938H0.1875V9.79688H5.15625C5.53125 11.6094 6.4375 13.1406 7.875 14.3906C9.34375 15.6094 11.0469 16.2188 12.9844 16.2188C14.9219 16.2188 16.625 15.6094 18.0938 14.3906C19.5625 13.1406 20.4844 11.6094 20.8594 9.79688H41.8125V6.60938H20.8594ZM12.9844 12.9844C11.6719 12.9844 10.5469 12.5156 9.60938 11.5781C8.67188 10.6406 8.20312 9.51562 8.20312 8.20312C8.20312 6.89062 8.67188 5.76562 9.60938 4.82812C10.5469 3.89062 11.6719 3.42188 12.9844 3.42188C14.3281 3.42188 15.4688 3.89062 16.4062 4.82812C17.3438 5.76562 17.8125 6.89062 17.8125 8.20312C17.8125 9.51562 17.3438 10.6406 16.4062 11.5781C15.4688 12.5156 14.3281 12.9844 12.9844 12.9844ZM29.0156 25.7812C27.0781 25.7812 25.375 26.4062 23.9062 27.6562C22.4375 28.875 21.5156 30.3906 21.1406 32.2031H0.1875V35.3906H21.1406C21.5156 37.2344 22.4375 38.7656 23.9062 39.9844C25.375 41.2031 27.0781 41.8125 29.0156 41.8125C30.9531 41.8125 32.6406 41.2031 34.0781 39.9844C35.5469 38.7656 36.4688 37.2344 36.8438 35.3906H41.8125V32.2031H36.8438C36.4688 30.3906 35.5469 28.875 34.0781 27.6562C32.6406 26.4062 30.9531 25.7812 29.0156 25.7812ZM29.0156 38.5781C27.6719 38.5781 26.5312 38.1094 25.5938 37.1719C24.6562 36.2344 24.1875 35.1094 24.1875 33.7969C24.1875 32.4844 24.6562 31.3594 25.5938 30.4219C26.5312 29.4844 27.6719 29.0156 29.0156 29.0156C30.3281 29.0156 31.4531 29.4844 32.3906 30.4219C33.3281 31.3594 33.7969 32.4844 33.7969 33.7969C33.7969 35.1094 33.3281 36.2344 32.3906 37.1719C31.4531 38.1094 30.3281 38.5781 29.0156 38.5781Z" fill="#46BC63"/>
</svg>
